# xmcd
#
# Track frame offsets: 
#        150
#        10663
#        26324
#        40428
#        55652
#        69404
#        82621
#        94406
#        113664
#        127660
#        145061
#        162164
#
# Disc length: 2356 seconds
#
# Revision: 0
# Processed by: cddbd v1.5.2PL0 Copyright (c) Steve Scherf et al.
# Submitted via: ExactAudioCopy v1.3
#
DISCID=8409320c
DTITLE=Rusty Rierson - Till the Fat Lady Sings
DYEAR=2008
DGENRE=Country
TTITLE0=Till the Fat Lady Sings
TTITLE1=Nolan Kroeker - Green With Envy
TTITLE2=Hey Hey Hello
TTITLE3=Kenny Wallace and Rusty Rierson - A Heart to Keep Love In
TTITLE4=Angel of My Heart
TTITLE5=Wayne Wedin and Jacob Emerson - Prison Break
TTITLE6=Life of the Party
TTITLE7=Aaron Sidwell - Will You Be My Girl
TTITLE8=Nolan Kroeker - Not a Problem Baby
TTITLE9=Jill Martin and Nolan Kroeker - Only Window Shopping
TTITLE10=My Island and Me
TTITLE11=Sharmin Pennington and Rusty Rierson - Those Little Hands
EXTD=
EXTT0=
EXTT1=
EXTT2=
EXTT3=
EXTT4=
EXTT5=
EXTT6=
EXTT7=
EXTT8=
EXTT9=
EXTT10=
EXTT11=
PLAYORDER=
